# xmcd CD database file
#
# Track frame offsets:
#	182
#	14567
#	27382
#	41720
#	55985
#	69987
#	83630
#	95867
#	109760
#	124737
#	139392
#	151777
#	164912
#	177007
#	191600
#	204967
#	218407
#	231590
#
# Disc length: 3265 seconds
#
# Revision: 1
# Processed by: cddbd v1.4PL0 Copyright (c) Steve Scherf et al.
# Submitted via: CDex 1.50
#
DISCID=010cbf12
DTITLE=Teddy Wilson with Billie Holiday - Teddy Wilson his Piano and Orchestra with Billie Holiday
DYEAR=1988
DGENRE=Jazz
TTITLE0=Nice Work If You Can Get It
TTITLE1=Where The Lazy River Goes By
TTITLE2=If You Were Mine
TTITLE3=(This Is) My Last Love Affair
TTITLE4=Why Do I Lie To Myself About You
TTITLE5=The Mood That I'm In
TTITLE6=I'm Coming, Virginia
TTITLE7=Easy Living
TTITLE8=How Am I To Know
TTITLE9=The Hour Of Parting
TTITLE10=Coquette
TTITLE11=You Let Me Down
TTITLE12=I've Found A New Baby
TTITLE13=All My Life
TTITLE14=Mary Had A Little Lamb
TTITLE15=Miss Brown To You
TTITLE16=What A Little Moonlight Can Do
TTITLE17=I Wished On The Moon
EXTD=YEAR: 1988
EXTT0=
EXTT1=
EXTT2=
EXTT3=
EXTT4=
EXTT5=
EXTT6=
EXTT7=
EXTT8=
EXTT9=
EXTT10=
EXTT11=
EXTT12=
EXTT13=
EXTT14=
EXTT15=
EXTT16=
EXTT17=
PLAYORDER=
